<svg height="512pt" viewBox="0 0 512 512" width="512pt" xmlns="http://www.w3.org/2000/svg" xmlns:xlink="http://www.w3.org/1999/xlink"><linearGradient id="a" gradientUnits="userSpaceOnUse" x1="0" x2="512" y1="256" y2="256"><stop offset="0" stop-color="#00f38d"/><stop offset="1" stop-color="#009eff"/></linearGradient><path d="m512 256c0 141.386719-114.613281 256-256 256s-256-114.613281-256-256 114.613281-256 256-256 256 114.613281 256 256zm0 0" fill="url(#a)"/><g fill="#fff"><path d="m359.160156 163.144531c0-55.230469-44.929687-100.164062-100.160156-100.164062s-100.160156 44.933593-100.160156 100.164062c0 33.066407 16.109375 62.4375 40.886718 80.691407-65.734374 24.199218-112.742187 87.457031-112.742187 161.488281h30c0-78.308594 63.707031-142.015625 142.015625-142.015625 55.230469 0 100.160156-44.933594 100.160156-100.164063zm-100.160156 70.164063c-38.6875 0-70.160156-31.476563-70.160156-70.164063s31.472656-70.164062 70.160156-70.164062 70.160156 31.476562 70.160156 70.164062-31.472656 70.164063-70.160156 70.164063zm0 0"/><path d="m401.730469 297.179688v-12.289063c0-22.574219-18.667969-40.9375-41.613281-40.9375-22.941407 0-41.609376 18.363281-41.609376 40.9375v12.289063h-29.265624v109.839843h141.773437v-109.839843zm-53.222657-12.289063c0-6.03125 5.207032-10.9375 11.609376-10.9375 6.40625 0 11.613281 4.90625 11.613281 10.9375v12.289063h-23.226563v-12.289063zm52.511719 92.128906h-81.777343v-49.839843h81.777343zm0 0"/></g></svg>